<!DOCTYPE svg PUBLIC "-//W3C//DTD SVG 1.1//EN" "http://www.w3.org/Graphics/SVG/1.1/DTD/svg11.dtd">
<!-- Uploaded to: SVG Repo, www.svgrepo.com, Transformed by: SVG Repo Mixer Tools -->
<svg fill="#000000" version="1.1" id="Layer_1" xmlns="http://www.w3.org/2000/svg" xmlns:xlink="http://www.w3.org/1999/xlink" viewBox="0 0 512 512" xml:space="preserve" width="800px" height="800px">
<g id="SVGRepo_bgCarrier" stroke-width="0"/>
<g id="SVGRepo_tracerCarrier" stroke-linecap="round" stroke-linejoin="round"/>
<g id="SVGRepo_iconCarrier"> <g> <g> <path d="M512,239.456v-15.673c-88.723,0-212.177-159.432-227.265-179.374V28.735h-57.469v15.662 c-7.099,9.335-38.048,49.216-77.997,88.696C90.097,191.567,38.481,222.477,0,222.477v15.673c10.68,0,22.009-1.931,33.959-5.762 v57.571H0v15.673h512v-15.673h-39.184v-58.092C486.701,236.917,499.774,239.456,512,239.456z M80.98,289.959H49.633v-63.54 c10.054-4.399,20.507-10.037,31.347-16.9V289.959z M128,289.959H96.653v-91.026c10.14-7.264,20.592-15.531,31.347-24.797V289.959z M175.02,289.959h-31.347V160.133c5.465-5.057,11-10.348,16.61-15.892c5.063-5.003,9.985-10.014,14.737-14.972V289.959z M227.265,289.959h-36.571V112.468c15.098-16.611,27.703-31.712,36.571-42.709V289.959z M269.061,289.959h-26.122V44.408h26.122 V289.959z M316.082,289.959h-31.347V69.886c7.826,9.774,18.56,22.762,31.347,37.173V289.959z M363.102,289.959h-31.347V124.275 c6.333,6.776,13.004,13.694,19.941,20.599c3.837,3.818,7.637,7.518,11.406,11.106V289.959z M410.122,289.959h-31.347V170.41 c10.748,9.562,21.2,18.135,31.347,25.721V289.959z M457.143,289.959h-31.347v-82.737c10.828,7.216,21.28,13.225,31.347,18.023 V289.959z"/> </g> </g> <g> <g> <path d="M512,347.429v-15.673H0v15.673h60.082v67.918H0v15.673h512v-15.673h-60.082v-67.918H512z M101.878,415.347H75.755v-67.918 h26.122V415.347z M227.265,415.347H117.551v-67.918h109.714V415.347z M269.061,415.347h-26.122v-67.918h26.122V415.347z M394.449,415.347H284.735v-67.918h109.714V415.347z M436.245,415.347h-26.122v-67.918h26.122V415.347z"/> </g> </g> <g> <g> <rect x="198.531" y="467.592" width="52.245" height="15.673"/> </g> </g> <g> <g> <rect x="266.449" y="467.592" width="20.898" height="15.673"/> </g> </g> <g> <g> <rect x="391.837" y="457.143" width="52.245" height="15.674"/> </g> </g> <g> <g> <rect x="355.265" y="457.143" width="20.898" height="15.674"/> </g> </g> <g> <g> <rect x="78.367" y="457.143" width="52.245" height="15.674"/> </g> </g> <g> <g> <rect x="41.796" y="457.143" width="20.898" height="15.674"/> </g> </g> </g>
</svg>